<svg width="72" height="17" viewBox="0 0 72 17" fill="none" xmlns="http://www.w3.org/2000/svg">
<g id="apple-music 1" clip-path="url(#clip0_456_6189)">
<g id="Group">
<path id="Vector" d="M11.993 9.11235C11.9707 7.75519 12.5569 6.69872 13.7503 5.94251C13.0773 4.96389 12.0847 4.41384 10.7723 4.29087C10.3054 4.24703 9.70854 4.35738 8.98248 4.6247C8.20146 4.91427 7.76176 5.0582 7.66424 5.0582C7.45808 5.0582 7.06223 4.93651 6.47561 4.69121C5.89027 4.44656 5.39091 4.32423 4.97859 4.32423C4.2844 4.33557 3.63854 4.5274 3.04208 4.89973C2.44541 5.27249 1.96829 5.78169 1.6105 6.42605C1.15434 7.22717 0.927002 8.18377 0.927002 9.29563C0.927002 10.2965 1.09467 11.2971 1.43086 12.2987C1.74545 13.2553 2.1475 14.0949 2.6351 14.8171C3.0686 15.4734 3.4497 15.9516 3.77412 16.2523C4.2412 16.7191 4.71789 16.942 5.20678 16.9193C5.52115 16.9078 5.93304 16.7912 6.4431 16.5682C6.92001 16.3579 7.39777 16.2521 7.87533 16.2521C8.31994 16.2521 8.7806 16.3573 9.25857 16.5682C9.7898 16.7912 10.2242 16.9022 10.5603 16.9022C11.0595 16.8804 11.5257 16.6633 11.9603 16.2523C12.1115 16.1182 12.2772 15.9349 12.456 15.7014C12.6624 15.4294 12.8606 15.1512 13.0503 14.8673C13.2084 14.6225 13.3577 14.3721 13.4979 14.1167C13.6483 13.8416 13.7815 13.5574 13.8966 13.2657C13.9502 13.1434 13.999 13.0185 14.0428 12.8906C14.086 12.7627 14.1295 12.6325 14.1729 12.4988C13.7715 12.3213 13.4079 12.07 13.0826 11.7473C12.3675 11.0367 12.0039 10.1577 11.993 9.11235ZM23.7932 12.0863H23.7143L20.4095 4.53403H17.8143V16.7191H20.0761V8.82749H20.1811L22.9429 15.094H24.5291L27.2821 8.82749H27.3875V16.7191H29.6754V4.53403H27.0979L23.7932 12.0863ZM9.94207 2.93991C10.5174 2.21685 10.805 1.4384 10.805 0.60413V0.437533C10.805 0.381501 10.7994 0.326111 10.7887 0.270508C10.3871 0.292749 9.96153 0.420852 9.51093 0.653959C9.06097 0.887923 8.68949 1.18305 8.39607 1.53827C7.81052 2.23952 7.51732 2.98974 7.51732 3.79065V3.94869C7.51732 3.99916 7.52288 4.05177 7.53358 4.1078C8.43436 4.19656 9.23719 3.80712 9.94207 2.93991ZM56.1102 4.53403H58.6524V16.7194H56.1102V4.53403ZM66.3304 6.47096C67.8381 6.47096 68.6354 7.63158 68.6354 8.88138H71.0732V8.6224C71.0732 6.26587 69.2759 4.3022 66.3127 4.3022C63.139 4.3022 61.2457 6.39098 61.2457 9.95303V11.3279C61.2457 14.8889 63.1214 16.9518 66.3037 16.9518C69.3458 16.9518 71.0732 14.9604 71.0732 12.7469V12.4792H68.6356C68.6356 13.7384 67.8557 14.7826 66.3484 14.7826C64.805 14.7826 63.8229 13.6845 63.8229 11.3363V9.96244C63.8229 7.62238 64.8139 6.47096 66.3304 6.47096ZM39.3983 12.2287C39.3983 13.8628 38.4428 14.764 37.0403 14.764C35.6288 14.764 34.6735 13.8714 34.6735 12.2287V4.53403H32.1485V12.5859C32.1485 15.1843 33.9892 16.9516 37.0399 16.9516C40.0821 16.9516 41.9315 15.1843 41.9315 12.5859V4.53403H39.3983V12.2287ZM50.3424 9.62241L48.528 9.21222C47.4587 8.98831 46.8976 8.51547 46.8976 7.80994C46.8976 6.87302 47.66 6.28362 48.888 6.28362C50.2729 6.28362 50.9654 7.07811 51.0266 7.93526H53.3936C53.3673 5.78361 51.5704 4.28402 48.8963 4.28402C46.3631 4.28402 44.3642 5.61445 44.3642 8.00669C44.3642 10.0777 45.7671 11.0412 47.4502 11.4081L49.247 11.8273C50.4568 12.104 51.0704 12.5061 51.0704 13.3357C51.0704 14.2826 50.3163 14.9255 48.9053 14.9255C47.3886 14.9255 46.5907 14.1218 46.521 13.22H44.0836C44.1193 14.943 45.2588 16.9516 48.783 16.9516C51.7458 16.9516 53.5784 15.4788 53.5784 13.0854C53.5775 10.8716 52.0959 10.0056 50.3424 9.62241Z" fill="#FAFAFA"/>
</g>
</g>
<defs>
<clipPath id="clip0_456_6189">
<rect width="70.1462" height="16.6948" fill="white" transform="translate(0.92688 0.263916)"/>
</clipPath>
</defs>
</svg>
