<svg width="70" height="14" viewBox="0 0 70 14" fill="none" xmlns="http://www.w3.org/2000/svg">
<g id="deezer-logo 1" clip-path="url(#clip0_456_6196)">
<path id="Vector" d="M16.2238 8.94569C16.2238 11.7518 17.9522 13.4313 20.5204 13.4313C21.801 13.4313 22.8787 13.0744 23.4805 12.1367V13.4313H25.8248V0.0654297H23.3895V5.74768C22.8367 4.80997 21.815 4.3901 20.5344 4.3901C18.0292 4.3831 16.2238 6.09757 16.2238 8.94569ZM23.4665 8.94569C23.4665 10.5482 22.3749 11.5489 21.0663 11.5489C19.7087 11.5489 18.666 10.5482 18.666 8.94569C18.666 7.3152 19.7157 6.29351 21.0663 6.29351C22.3749 6.29351 23.4665 7.32919 23.4665 8.94569ZM33.4035 9.98137C33.1235 11.0171 32.4168 11.5349 31.3041 11.5349C30.0095 11.5349 28.9458 10.7511 28.9178 9.36556H35.0549C35.1319 9.02267 35.1669 8.65878 35.1669 8.2599C35.1669 5.77567 33.4734 4.3761 30.9752 4.3761C28.309 4.3761 26.4756 6.27252 26.4756 8.84772C26.4756 11.7168 28.498 13.4383 31.2971 13.4383C33.4105 13.4383 34.845 12.5566 35.4748 10.8001L33.4035 9.98137ZM28.9178 7.74206C29.1488 6.74137 29.9815 6.15355 30.9822 6.15355C32.0739 6.15355 32.8156 6.74137 32.8156 7.66509L32.8016 7.74206H28.9178ZM42.4377 9.98137C42.1578 11.0171 41.451 11.5349 40.3383 11.5349C39.0437 11.5349 37.98 10.7511 37.9521 9.36556H44.0892C44.1661 9.02267 44.2011 8.65878 44.2011 8.2599C44.2011 5.77567 42.5077 4.3761 40.0094 4.3761C37.3432 4.3761 35.5098 6.27252 35.5098 8.84772C35.5098 11.7168 37.5322 13.4383 40.3313 13.4383C42.4447 13.4383 43.8792 12.5566 44.509 10.8001L42.4377 9.98137ZM37.9521 7.74206C38.183 6.74137 39.0157 6.15355 40.0164 6.15355C41.1081 6.15355 41.8499 6.74137 41.8499 7.66509L41.8359 7.74206H37.9521ZM52.7945 13.4453V11.241H47.6791L52.6545 6.39848V4.3831H44.7819V6.48245H49.5895L44.628 11.346V13.4453H52.7945ZM59.9113 9.98137C59.6314 11.0171 58.9246 11.5349 57.8119 11.5349C56.5173 11.5349 55.4537 10.7511 55.4257 9.36556H61.5628C61.6398 9.02267 61.6747 8.65878 61.6747 8.2599C61.6747 5.77567 59.9813 4.3761 57.483 4.3761C54.8169 4.3761 52.9834 6.27252 52.9834 8.84772C52.9834 11.7168 55.0058 13.4383 57.8049 13.4383C59.9183 13.4383 61.3528 12.5566 61.9826 10.8001L59.9113 9.98137ZM55.4257 7.74206C55.6566 6.74137 56.4893 6.15355 57.49 6.15355C58.5817 6.15355 59.3235 6.74137 59.3235 7.66509L59.3095 7.74206H55.4257Z" fill="#FAFAFA"/>
<g id="Group">
<path id="Vector_2" fill-rule="evenodd" clip-rule="evenodd" d="M10.7241 4.3833H13.7262V6.13976H10.7241V4.3833Z" fill="#FAFAFA"/>
<path id="Vector_3" fill-rule="evenodd" clip-rule="evenodd" d="M10.7241 6.81848H13.7262V8.57494H10.7241V6.81848Z" fill="#FAFAFA"/>
<path id="Vector_4" fill-rule="evenodd" clip-rule="evenodd" d="M10.7241 9.25378H13.7262V11.0102H10.7241V9.25378Z" fill="#FAFAFA"/>
<path id="Vector_5" fill-rule="evenodd" clip-rule="evenodd" d="M-0.157959 11.6891H2.84412V13.4455H-0.157959V11.6891Z" fill="#FAFAFA"/>
<path id="Vector_6" fill-rule="evenodd" clip-rule="evenodd" d="M3.466 11.6891H6.46808V13.4455H3.466V11.6891Z" fill="#FAFAFA"/>
<path id="Vector_7" fill-rule="evenodd" clip-rule="evenodd" d="M7.09857 11.6891H10.1006V13.4455H7.09857V11.6891Z" fill="#FAFAFA"/>
<path id="Vector_8" fill-rule="evenodd" clip-rule="evenodd" d="M10.7241 11.6891H13.7262V13.4455H10.7241V11.6891Z" fill="#FAFAFA"/>
<path id="Vector_9" fill-rule="evenodd" clip-rule="evenodd" d="M7.09857 9.25378H10.1006V11.0102H7.09857V9.25378Z" fill="#FAFAFA"/>
<path id="Vector_10" fill-rule="evenodd" clip-rule="evenodd" d="M3.466 9.25378H6.46808V11.0102H3.466V9.25378Z" fill="#FAFAFA"/>
<path id="Vector_11" fill-rule="evenodd" clip-rule="evenodd" d="M3.466 6.81848H6.46808V8.57494H3.466V6.81848Z" fill="#FAFAFA"/>
</g>
<path id="Vector_12" d="M67.4483 7.51126V7.77018H69.8206V7.07739C69.8206 5.52387 68.8479 4.39722 67.2174 4.39722C66.1677 4.39722 65.4259 4.90806 65.041 5.7548V4.39722H62.5918V13.4454H65.041V7.61622C65.041 6.69251 65.5379 6.18167 66.3007 6.18167C67.0004 6.18866 67.4483 6.84646 67.4483 7.51126Z" fill="#FAFAFA"/>
</g>
<defs>
<clipPath id="clip0_456_6196">
<rect width="69.9784" height="13.3799" fill="white" transform="translate(-0.158081 0.0654297)"/>
</clipPath>
</defs>
</svg>
