<svg width="74" height="23" viewBox="0 0 74 23" fill="none" xmlns="http://www.w3.org/2000/svg">
<g id="spotify-1 1" clip-path="url(#clip0_456_6184)">
<path id="Vector" d="M11.4751 0.675903C5.43578 0.675903 0.539734 5.57182 0.539734 11.6111C0.539734 17.6511 5.43578 22.5467 11.4751 22.5467C17.5146 22.5467 22.4104 17.6511 22.4104 11.6111C22.4104 5.57221 17.5149 0.676425 11.4749 0.676425L11.4751 0.675903ZM16.49 16.4476C16.2936 16.7698 15.8739 16.8707 15.5528 16.6744C12.9849 15.105 9.75269 14.7504 5.94622 15.62C5.57942 15.7041 5.21379 15.4741 5.13022 15.1075C5.04625 14.7406 5.27516 14.375 5.64288 14.2915C9.80845 13.3391 13.3816 13.749 16.2639 15.5103C16.5852 15.7075 16.687 16.1267 16.4898 16.4479L16.49 16.4476ZM17.8284 13.4705C17.5811 13.8718 17.0564 13.9976 16.6557 13.7512C13.7169 11.9448 9.23572 11.4215 5.75897 12.4769C5.30807 12.6131 4.83184 12.359 4.69499 11.9089C4.55918 11.4579 4.81343 10.9826 5.26354 10.8455C9.23494 9.64051 14.172 10.2242 17.5475 12.2985C17.9484 12.5453 18.0751 13.0703 17.8283 13.4706L17.8284 13.4705ZM17.9433 10.3699C14.4184 8.27657 8.60409 8.08409 5.23911 9.10537C4.69877 9.26925 4.12734 8.96421 3.96359 8.42386C3.79984 7.88326 4.10462 7.31222 4.64536 7.14794C8.50811 5.97532 14.9295 6.20188 18.9872 8.61073C19.4732 8.89918 19.6327 9.52689 19.3446 10.0123C19.0573 10.4983 18.4279 10.6585 17.9435 10.3699H17.9433ZM30.2912 10.7711C28.4031 10.3208 28.067 10.0048 28.067 9.34081C28.067 8.7135 28.6576 8.29133 29.5359 8.29133C30.3873 8.29133 31.2315 8.61191 32.1166 9.27187C32.1434 9.29185 32.1769 9.29981 32.21 9.29459C32.243 9.28963 32.2723 9.27147 32.2916 9.24419L33.2135 7.94463C33.2514 7.89109 33.241 7.81731 33.19 7.77644C32.1366 6.93118 30.9504 6.52024 29.5639 6.52024C27.5252 6.52024 26.1012 7.74366 26.1012 9.49412C26.1012 11.3712 27.3296 12.0359 29.4523 12.549C31.2591 12.9651 31.564 13.3138 31.564 13.937C31.564 14.6277 30.9474 15.0571 29.9551 15.0571C28.853 15.0571 27.9541 14.6858 26.9484 13.815C26.9235 13.7934 26.8893 13.7836 26.8577 13.7854C26.8244 13.7882 26.7939 13.8036 26.7728 13.8291L25.7391 15.0593C25.6958 15.1103 25.7012 15.1866 25.7514 15.2307C26.9214 16.2753 28.3604 16.827 29.9133 16.827C32.1101 16.827 33.5297 15.6267 33.5297 13.7689C33.5336 12.2006 32.5947 11.3322 30.2951 10.7728L30.2912 10.7711ZM38.4996 8.90898C37.5474 8.90898 36.7664 9.28401 36.1223 10.0525V9.18751C36.1223 9.11921 36.067 9.06359 35.9988 9.06359H34.3082C34.2399 9.06359 34.1846 9.11921 34.1846 9.18751V18.7986C34.1846 18.8669 34.2399 18.9225 34.3082 18.9225H35.9988C36.067 18.9225 36.1223 18.8669 36.1223 18.7986V15.7648C36.7665 16.4877 37.5477 16.8409 38.4996 16.8409C40.2689 16.8409 42.0599 15.479 42.0599 12.8754C42.0625 10.2712 40.271 8.90885 38.5016 8.90885L38.4996 8.90898ZM40.094 12.8754C40.094 14.2012 39.2773 15.1264 38.108 15.1264C36.9519 15.1264 36.0799 14.1592 36.0799 12.8754C36.0799 11.5918 36.9519 10.6244 38.108 10.6244C39.2584 10.6243 40.0941 11.5708 40.0941 12.8753L40.094 12.8754ZM46.6505 8.90898C44.372 8.90898 42.587 10.6635 42.587 12.9037C42.587 15.1196 44.3597 16.8557 46.6226 16.8557C48.9092 16.8557 50.6998 15.1071 50.6998 12.8754C50.6998 10.6515 48.9212 8.90924 46.6504 8.90924L46.6505 8.90898ZM46.6505 15.1396C45.4386 15.1396 44.5249 14.1658 44.5249 12.8748C44.5249 11.5782 45.407 10.6374 46.6226 10.6374C47.8424 10.6374 48.7622 11.6111 48.7622 12.9031C48.7622 14.1994 47.8742 15.1396 46.6507 15.1396H46.6505ZM55.5654 9.06359H53.705V7.16153C53.705 7.09337 53.6499 7.03774 53.5816 7.03774H51.8912C51.8228 7.03774 51.7673 7.09337 51.7673 7.16153V9.06359H50.9544C50.8864 9.06359 50.8313 9.11921 50.8313 9.18751V10.6405C50.8313 10.7087 50.8864 10.7644 50.9544 10.7644H51.7673V14.524C51.7673 16.0433 52.5235 16.8136 54.0149 16.8136C54.6213 16.8136 55.1244 16.6884 55.5986 16.4196C55.6371 16.398 55.661 16.3565 55.661 16.3123V14.9287C55.661 14.886 55.6388 14.8456 55.6022 14.8233C55.5654 14.8002 55.5196 14.799 55.4818 14.8177C55.1561 14.9816 54.8413 15.0572 54.4894 15.0572C53.947 15.0572 53.705 14.8109 53.705 14.2589V10.7651H55.5654C55.6337 10.7651 55.6887 10.7095 55.6887 10.6412V9.1883C55.6913 9.12001 55.6364 9.06438 55.5672 9.06438L55.5654 9.06359ZM62.0475 9.07103V8.83742C62.0475 8.15016 62.311 7.84369 62.902 7.84369C63.2545 7.84369 63.5376 7.91368 63.8546 8.01945C63.8937 8.03173 63.9344 8.02559 63.9661 8.00221C63.9988 7.97883 64.0172 7.94136 64.0172 7.90166V6.47701C64.0172 6.42255 63.9822 6.37437 63.9297 6.35831C63.5948 6.25867 63.1662 6.15643 62.5245 6.15643C60.963 6.15643 60.1376 7.03577 60.1376 8.69847V9.05627H59.3254C59.2572 9.05627 59.2013 9.1119 59.2013 9.18006V10.6405C59.2013 10.7087 59.2572 10.7644 59.3254 10.7644H60.1376V16.5634C60.1376 16.6317 60.1927 16.6874 60.2609 16.6874H61.9515C62.0198 16.6874 62.0755 16.6317 62.0755 16.5634V10.7648H63.6539L66.0719 16.5624C65.7974 17.1716 65.5275 17.2928 65.159 17.2928C64.8612 17.2928 64.5475 17.2038 64.2268 17.0283C64.1966 17.0117 64.1608 17.009 64.1283 17.0191C64.0961 17.0304 64.0689 17.0544 64.0552 17.0858L63.4822 18.3429C63.4549 18.4023 63.4783 18.472 63.5355 18.5029C64.1337 18.8268 64.6737 18.9651 65.3411 18.9651C66.5894 18.9651 67.2794 18.3836 67.8877 16.8193L70.8207 9.24026C70.8354 9.20213 70.831 9.15904 70.8076 9.12522C70.7844 9.09166 70.7469 9.07142 70.7059 9.07142H68.9459C68.8932 9.07142 68.846 9.10498 68.8288 9.15447L67.0258 14.3044L65.051 9.15108C65.033 9.10315 64.9868 9.07141 64.9356 9.07141H62.0471L62.0475 9.07103ZM58.2893 9.06359H56.5987C56.5304 9.06359 56.4748 9.11921 56.4748 9.18751V16.5634C56.4748 16.6317 56.5304 16.6874 56.5987 16.6874H58.2893C58.3575 16.6874 58.4133 16.6317 58.4133 16.5634V9.18803C58.4133 9.17173 58.4101 9.15559 58.4039 9.14053C58.3977 9.12547 58.3885 9.11179 58.377 9.10027C58.3655 9.08876 58.3518 9.07963 58.3367 9.07343C58.3216 9.06722 58.3055 9.06405 58.2892 9.06411L58.2893 9.06359ZM57.4536 5.70515C56.7839 5.70515 56.2404 6.24732 56.2404 6.91708C56.2404 7.58723 56.784 8.13006 57.4536 8.13006C58.1231 8.13006 58.6661 7.58723 58.6661 6.91708C58.6661 6.24745 58.1229 5.70515 57.4543 5.70515H57.4536ZM72.2643 11.4351C71.5952 11.4351 71.0745 10.8977 71.0745 10.2452C71.0745 9.59271 71.6019 9.04922 72.2705 9.04922C72.9396 9.04922 73.4603 9.58644 73.4603 10.2384C73.4603 10.891 72.9327 11.4351 72.2641 11.4351H72.2643ZM72.2708 9.16753C71.6614 9.16753 71.2003 9.65199 71.2003 10.2452C71.2003 10.8382 71.6581 11.3161 72.2646 11.3161C72.8739 11.3161 73.3356 10.8321 73.3356 10.2384C73.3356 9.64546 72.8772 9.16753 72.2713 9.16753H72.2708ZM72.5346 10.3608L72.8711 10.8319H72.5873L72.2844 10.3997H72.0239V10.8319H71.7864V9.58304H72.3433C72.6334 9.58304 72.8242 9.73151 72.8242 9.98145C72.8255 10.1862 72.7067 10.3113 72.5356 10.3608L72.5346 10.3608ZM72.3335 9.79733H72.0237V10.1923H72.3335C72.4881 10.1923 72.5804 10.1167 72.5804 9.99465C72.5804 9.86615 72.4877 9.79734 72.3336 9.79734L72.3335 9.79733Z" fill="#FAFAFA"/>
</g>
<defs>
<clipPath id="clip0_456_6184">
<rect width="72.9205" height="21.8708" fill="white" transform="translate(0.539734 0.675903)"/>
</clipPath>
</defs>
</svg>
