<svg width="46" height="43" viewBox="0 0 46 43" fill="none" xmlns="http://www.w3.org/2000/svg">
  <g id="versusicon100 1">
    <g id="Layer 2">
      <g id="Layer 1">
        <path id="Vector"
          d="M23.2677 40.6633C33.9048 40.6633 42.5279 32.0402 42.5279 21.4032C42.5279 10.7661 33.9048 2.14301 23.2677 2.14301C12.6306 2.14301 4.00757 10.7661 4.00757 21.4032C4.00757 32.0402 12.6306 40.6633 23.2677 40.6633Z"
          stroke="#050505" stroke-width="2.3048" stroke-miterlimit="10" />
        <path id="Vector_2"
          d="M35.9866 35.3999L29.1473 19.6503C28.9722 19.2117 28.6579 18.8427 28.2527 18.6C27.8476 18.3572 27.374 18.2542 26.9046 18.3067C26.4506 18.3539 26.0234 18.5443 25.6847 18.8503C25.346 19.1563 25.1134 19.5621 25.0205 20.0089C25.0205 20.0595 25.8236 27.8787 25.8236 27.9292"
          stroke="#050505" stroke-width="2.3048" stroke-miterlimit="10" />
        <path id="Vector_3"
          d="M19.4489 14.4426L20.3733 24.3126V24.3783C20.2804 24.8252 20.0478 25.2309 19.7091 25.5369C19.3704 25.8429 18.9432 26.0333 18.4892 26.0805C18.0204 26.1334 17.5473 26.0311 17.1422 25.7893C16.7371 25.5475 16.4225 25.1796 16.2465 24.742L9.29102 8.79034"
          stroke="#050505" stroke-width="2.3048" stroke-miterlimit="10" />
      </g>
    </g>
  </g>
</svg>