<svg width="150" height="39" viewBox="0 0 150 39" fill="none" xmlns="http://www.w3.org/2000/svg">
  <g id="versus_logo 2" clip-path="url(#clip0_455_5502)">
    <g id="Layer 1">
      <g id="Group">
        <g id="Group_2">
          <path id="Vector"
            d="M31.0075 0.422607L14.3754 27.1845H6.68781L0 0.422607H8.51143L12.4833 16.0302L22.083 0.422607H31.0075Z"
            fill="#050505" />
          <path id="Vector_2"
            d="M37.5985 6.74919L36.8537 10.5334H48.5095L47.2773 16.716H35.5895L34.7774 20.8566H48.4895L47.1757 27.1832H26.0347L31.384 0.421387H52.0635L50.7498 6.74919H37.5985Z"
            fill="#050505" />
          <path id="Vector_3"
            d="M76.42 9.03551C76.42 6.35496 75.4202 4.14654 73.527 2.64515C71.6656 1.16972 69.0535 0.421387 65.7639 0.421387H54.8705L49.52 27.1832H57.0541L58.4528 20.1685H62.2252L66.1652 27.195H74.2009L69.6236 19.0637C73.946 17.3581 76.4188 13.7167 76.4188 9.03551H76.42ZM61.0956 6.82709H64.9978C67.6335 6.82709 68.8611 7.70173 68.8611 9.57965C68.8611 13.1301 66.0058 13.8749 63.6109 13.8749H59.6745L61.0956 6.82591V6.82709Z"
            fill="#050505" />
          <path id="Vector_4"
            d="M98.2668 18.2929C98.2668 23.9704 93.3967 27.6388 85.8567 27.6388C81.8294 27.6164 77.6781 26.4443 75.2785 24.6526L74.7048 24.23L77.8552 18.2622L78.6401 18.8359C80.7682 20.3951 83.6034 21.2898 86.4233 21.2898C89.2431 21.2898 90.7858 20.4813 90.7858 19.1805C90.7858 18.143 88.843 17.5942 86.7868 17.0134L86.7396 17.0004C84.9313 16.4882 82.8811 15.9051 81.2604 14.8133C79.3046 13.4901 78.3545 11.6936 78.3545 9.32351C78.3545 3.65905 83.1868 0 90.6642 0C94.256 0 97.4996 0.812074 99.7977 2.28868L100.433 2.68055L97.4878 8.66606L96.6875 8.10776C94.9831 6.96755 92.7239 6.33843 90.3314 6.33843C87.5942 6.33843 85.8248 7.2225 85.8248 8.5917C85.8154 9.70122 87.7511 10.2454 89.9914 10.8745L90.0351 10.8922C91.8091 11.3938 93.8157 11.9639 95.4056 13.0239C97.332 14.3034 98.268 16.0278 98.268 18.2917L98.2668 18.2929Z"
            fill="#050505" />
          <path id="Vector_5"
            d="M127.906 0.433105L124.867 15.728C123.266 23.6174 118.678 27.6175 111.229 27.6175C104.479 27.6175 100.285 23.9349 100.285 18.0048C100.296 17.0417 100.398 16.0821 100.59 15.1519L103.511 0.433105H111.045L108.051 15.3727C107.931 16.0089 107.866 16.6675 107.855 17.3309C107.855 19.8414 109.128 21.0123 111.862 21.0123C115.043 21.0123 116.697 19.282 117.571 15.041L120.504 0.433105H127.906Z"
            fill="#050505" />
          <path id="Vector_6"
            d="M147.859 18.2705C147.853 21.1151 146.631 23.4569 144.469 25.0893C142.307 26.7194 139.206 27.6388 135.438 27.6388C131.424 27.6164 127.273 26.4443 124.861 24.6538L124.286 24.23L127.437 18.2622L128.222 18.8359C130.35 20.3951 133.185 21.2898 136.005 21.2898C138.825 21.2898 140.367 20.4813 140.367 19.1805C140.367 18.143 138.424 17.5942 136.368 17.0134L136.321 17.0004C134.513 16.4882 132.463 15.9051 130.842 14.8133C128.886 13.4901 127.936 11.6936 127.936 9.32351C127.936 3.65905 132.768 0 140.246 0C143.838 0 147.081 0.812074 149.379 2.28868L150.002 2.68291L147.06 8.66252L146.271 8.13136C144.559 6.97463 142.304 6.33725 139.925 6.33725C137.187 6.33725 135.418 7.22132 135.418 8.59052C135.409 9.70004 137.344 10.2442 139.585 10.8733C141.261 11.3372 143.347 11.9144 144.986 13.0003C146.921 14.2774 147.861 16.0019 147.861 18.2693L147.859 18.2705Z"
            fill="#050505" />
        </g>
        <g id="Group_3">
          <path id="Vector_7"
            d="M81.1933 36.718C81.1933 38.0943 79.9728 38.7493 78.2967 38.7493H74.9221L76.2099 32.3118H79.3177C80.7046 32.3118 81.4825 32.8335 81.4825 33.7884C81.4825 34.5981 81.0162 35.154 80.3281 35.4314C80.8604 35.6309 81.2157 36.1526 81.1944 36.7192L81.1933 36.718ZM79.7167 36.7074C79.7167 36.2305 79.339 36.0416 78.7511 36.0416H76.9535L76.6431 37.6292H78.397C79.2068 37.6292 79.7178 37.3188 79.7178 36.7074H79.7167ZM77.4634 33.4437L77.1636 34.964H78.6839C79.4605 34.964 79.9268 34.6536 79.9268 34.054C79.9268 33.6326 79.5821 33.4437 78.9837 33.4437H77.4634Z"
            fill="#050505" />
          <path id="Vector_8"
            d="M82.1602 36.063C82.1602 33.8652 83.7701 32.1997 86.145 32.1997C88.0984 32.1997 89.2752 33.3435 89.2752 34.9971C89.2752 37.1949 87.6653 38.8604 85.2904 38.8604C83.337 38.8604 82.1602 37.7284 82.1602 36.063ZM87.7656 35.0856C87.7656 34.1307 87.1436 33.4757 86.0116 33.4757C84.5574 33.4757 83.6698 34.63 83.6698 35.9839C83.6698 36.9388 84.2918 37.5939 85.4238 37.5939C86.878 37.5939 87.7656 36.4395 87.7656 35.0856Z"
            fill="#050505" />
          <path id="Vector_9"
            d="M89.9185 36.063C89.9185 33.8652 91.5284 32.1997 93.9033 32.1997C95.8568 32.1997 97.0336 33.3435 97.0336 34.9971C97.0336 37.1949 95.4236 38.8604 93.0487 38.8604C91.0953 38.8604 89.9185 37.7284 89.9185 36.063ZM95.5239 35.0856C95.5239 34.1307 94.9019 33.4757 93.7699 33.4757C92.3157 33.4757 91.4281 34.63 91.4281 35.9839C91.4281 36.9388 92.0502 37.5939 93.1821 37.5939C94.6363 37.5939 95.5239 36.4395 95.5239 35.0856Z"
            fill="#050505" />
          <path id="Vector_10"
            d="M101.407 35.3088L103.638 38.7613H101.961L100.308 36.2413L99.2644 37.1631L98.9422 38.7613H97.4656L98.7533 32.3237H100.23L99.6421 35.2758L102.984 32.3237H104.781L101.407 35.31V35.3088Z"
            fill="#050505" />
          <path id="Vector_11" d="M105.569 32.3225H107.068L105.78 38.7601H104.281L105.569 32.3225Z" fill="#050505" />
          <path id="Vector_12"
            d="M114.483 32.3225L113.195 38.7601H111.974L109.577 34.7304L108.767 38.7601H107.291L108.579 32.3225H109.811L112.208 36.3628L113.007 32.3225H114.484H114.483Z"
            fill="#050505" />
          <path id="Vector_13"
            d="M119.743 35.4303H121.109L120.577 38.0837C119.866 38.6054 119.001 38.8722 118.112 38.8604C116.159 38.8604 114.926 37.7284 114.926 36.063C114.926 33.8652 116.536 32.1997 118.967 32.1997C120.199 32.1997 121.098 32.5998 121.653 33.321L120.587 34.1874C120.154 33.6763 119.622 33.4662 118.9 33.4662C117.391 33.4662 116.425 34.5545 116.425 35.9638C116.425 36.9293 117.069 37.5844 118.29 37.5844C118.656 37.5844 119.023 37.5065 119.356 37.3519L119.744 35.4315L119.743 35.4303Z"
            fill="#050505" />
          <path id="Vector_14"
            d="M33.7637 37.3731H30.7669L29.9347 38.7493H28.3472L32.509 32.3118H33.9857L35.5614 38.7493H34.0742L33.7637 37.3731ZM33.5088 36.2411L32.9647 33.7553L31.455 36.2411H33.5088Z"
            fill="#050505" />
          <path id="Vector_15"
            d="M40.8127 36.7628L41.934 38.7493H40.3583L39.3479 36.9517H38.0826L37.7273 38.7493H36.2283L37.516 32.3118H40.1352C41.7334 32.3118 42.6552 33.0448 42.6552 34.3101C42.6446 35.5306 41.9565 36.4194 40.8127 36.7628ZM41.1456 34.4541C41.1456 33.832 40.7018 33.5322 39.9463 33.5322H38.7695L38.3139 35.7631H39.5793C40.5566 35.7631 41.1444 35.3075 41.1444 34.4529L41.1456 34.4541Z"
            fill="#050505" />
          <path id="Vector_16"
            d="M45.2639 33.5324H43.1995L43.4438 32.3225H49.0492L48.8049 33.5324H46.7511L45.7077 38.7495H44.2205L45.2639 33.5324Z"
            fill="#050505" />
          <path id="Vector_17" d="M49.8588 32.3225H51.3578L50.0701 38.7601H48.571L49.8588 32.3225Z" fill="#050505" />
          <path id="Vector_18"
            d="M51.247 38.1498L51.8573 36.9955C52.4793 37.4287 53.2229 37.6612 53.9772 37.6612C54.7987 37.6612 55.3086 37.372 55.3086 36.9069C55.3086 35.8741 52.1228 36.4301 52.1228 34.3763C52.1228 33.0555 53.2772 32.2009 55.0643 32.2009C55.9306 32.2009 56.7297 32.3898 57.2845 32.7557L56.7179 33.8994C56.1962 33.5666 55.5966 33.3884 54.9757 33.4002C54.1094 33.4002 53.6101 33.733 53.6101 34.1886C53.5994 35.2427 56.7958 34.6997 56.7958 36.6744C56.7958 38.0058 55.619 38.8616 53.832 38.8616C52.7779 38.8616 51.79 38.5512 51.2458 38.151L51.247 38.1498Z"
            fill="#050505" />
          <path id="Vector_19"
            d="M59.7265 33.5324H57.6621L57.9064 32.3225H63.5119L63.2675 33.5324H61.2138L60.1703 38.7495H58.6831L59.7265 33.5324Z"
            fill="#050505" />
          <path id="Vector_20"
            d="M68.8506 36.0628L69.894 37.9278H68.7503L68.14 36.784L67.0636 37.9278H65.8313L67.6962 36.0073L66.6977 34.1873H67.819L68.4068 35.2862L69.4502 34.1873H70.6494L68.8518 36.0628H68.8506Z"
            fill="#050505" />
        </g>
      </g>
    </g>
  </g>
  <defs>
    <clipPath id="clip0_455_5502">
      <rect width="150" height="38.8603" fill="white" />
    </clipPath>
  </defs>
</svg>