<svg width="750" height="140" viewBox="0 0 750 140" fill="none" xmlns="http://www.w3.org/2000/svg">
<path d="M154.011 2.0988L71.4008 135.022H33.2176L0 2.0988H42.2753L62.0031 79.6202L109.684 2.0988H154.011Z" fill="white"/>
<path d="M186.748 33.5224L183.049 52.318H240.942L234.821 83.0264H176.77L172.736 103.592H240.842L234.317 135.016H129.312L155.881 2.09296H258.594L252.069 33.5224H186.748Z" fill="white"/>
<path d="M379.569 44.8783C379.569 31.5643 374.604 20.5954 365.2 13.1381C355.955 5.80986 342.981 2.09296 326.642 2.09296H272.535L245.96 135.016H283.381L290.328 100.175H309.065L328.635 135.075H368.548L345.812 94.6871C367.281 86.2156 379.563 68.1295 379.563 44.8783H379.569ZM303.455 33.9094H322.837C335.928 33.9094 342.025 38.2536 342.025 47.581C342.025 65.2158 327.843 68.9151 315.948 68.9151H296.396L303.455 33.9035V33.9094Z" fill="white"/>
<path d="M488.081 90.8588C488.081 119.058 463.891 137.279 426.441 137.279C406.438 137.168 385.819 131.346 373.9 122.447L371.051 120.348L386.698 90.7064L390.597 93.5556C401.167 101.3 415.249 105.744 429.255 105.744C443.261 105.744 450.923 101.728 450.923 95.2675C450.923 90.1143 441.273 87.3882 431.061 84.5038L430.826 84.4393C421.845 81.8949 411.661 78.9988 403.612 73.5758C393.898 67.0038 389.178 58.0809 389.178 46.3088C389.178 18.1741 413.18 0 450.319 0C468.159 0 484.27 4.03348 495.684 11.3676L498.838 13.314L484.211 43.0433L480.236 40.2703C471.771 34.607 460.55 31.4823 448.666 31.4823C435.071 31.4823 426.283 35.8734 426.283 42.674C426.236 48.1848 435.85 50.8875 446.978 54.0123L447.195 54.1002C456.006 56.5918 465.973 59.4235 473.869 64.6881C483.437 71.0432 488.086 79.6085 488.086 90.853L488.081 90.8588Z" fill="white"/>
<path d="M635.297 2.1516L620.2 78.1194C612.251 117.305 589.463 137.174 552.464 137.174C518.935 137.174 498.106 118.882 498.106 89.4284C498.158 84.6445 498.668 79.8782 499.618 75.2584L514.128 2.1516H551.549L536.676 76.3548C536.084 79.5147 535.761 82.786 535.703 86.0808C535.703 98.5506 542.028 104.366 555.606 104.366C571.406 104.366 579.619 95.7717 583.964 74.7074L598.532 2.1516H635.297Z" fill="white"/>
<path d="M734.398 90.7474C734.369 104.876 728.301 116.508 717.561 124.616C706.821 132.712 691.42 137.279 672.706 137.279C652.767 137.168 632.148 131.346 620.171 122.452L617.316 120.348L632.963 90.7064L636.862 93.5556C647.432 101.3 661.514 105.744 675.52 105.744C689.526 105.744 697.188 101.728 697.188 95.2675C697.188 90.1143 687.538 87.3882 677.326 84.5038L677.091 84.4393C668.11 81.8949 657.926 78.9988 649.877 73.5758C640.163 67.0038 635.443 58.0809 635.443 46.3088C635.443 18.1741 659.445 0 696.585 0C714.424 0 730.535 4.03348 741.949 11.3676L745.045 13.3257L730.429 43.0257L726.513 40.3876C718.006 34.6422 706.809 31.4764 694.99 31.4764C681.394 31.4764 672.606 35.8675 672.606 42.6681C672.56 48.179 682.174 50.8817 693.301 54.0064C701.626 56.3104 711.986 59.1773 720.129 64.5709C729.738 70.9142 734.41 79.4795 734.41 90.7416L734.398 90.7474Z" fill="white"/>
</svg>
